<?xml version="1.0" encoding="UTF-8"?> <svg xmlns="http://www.w3.org/2000/svg" xmlns:xlink="http://www.w3.org/1999/xlink" version="1.2" id="Calque_1" x="0px" y="0px" viewBox="0 0 293 225" overflow="visible" xml:space="preserve"> <g> <path fill="#D1D1D1" d="M69.2,175.1l0.2,18.5l-16.2,15.2v4.2h37.2l15.2-10.3l0.5,11.3l10.3,2.3l9-21.3c0,0,8.7,0.7,10.8,0.5 l1.7,24.8l13-0.2l3.7-23.3c0,0,9-0.7,9.8-0.8l6.2,23l12.3-1.3l0.2-24.8c0,0,8.8-1.5,9.2-1.7l12.7,20.7l11.3-5.5l-4.2-21.2l7.2-4.5 l16.5,17.3l9.7-6.8l-9.3-21.8l7.8-7.5l-14-15.3c0,0-44.7,35.2-89.5,27l68.8-55.2l-10.5-10.7L74.2,207.9l-0.3-32.8h18.8l61.3-49.2 h-45.5l-54.8,44.3l0,4.8L69.2,175.1z"></path> <path fill="none" d="M171.9,52.3c0,11.8-9.6,21.4-21.3,21.4s-21.3-9.6-21.3-21.4s9.6-21.4,21.3-21.4S171.9,40.5,171.9,52.3z"></path> <polygon fill="#D1D1D1" points="183.5,102.6 190.5,96.9 210.6,98.1 204.3,103.2 "></polygon> <polygon fill="#D1D1D1" points="241.5,87.7 241.5,92.6 232.4,99.8 210.6,98.1 224,87.8 "></polygon> <polygon fill="#D1D1D1" points="247.9,50.6 202.1,50.5 181.7,66.9 198.9,89.8 223.5,70.2 223.5,73.9 224.8,73.9 224.8,69.1 "></polygon> <polygon fill="#D1D1D1" points="148.5,93.7 190.5,96.9 168.7,77.8 "></polygon> <polygon fill="#D1D1D1" points="183,102.5 154,125.9 135.2,104.5 139.5,101 "></polygon> <polygon fill="#D1D1D1" points="127.5,110.2 135.2,104.5 131.9,100.7 139.5,101 148.5,93.7 113.5,91.3 "></polygon> <polygon fill="#D1D1D1" points="121,116 132.2,116.8 127.5,110.2 "></polygon> <polygon fill="#D1D1D1" points="72.3,126.3 108.5,125.9 121,116 84.1,114.6 "></polygon> <polygon fill="#D1D1D1" points="63.9,126.8 72.3,126.3 42.3,151.1 "></polygon> <polygon fill="#D1D1D1" points="35.5,112.3 45,126.9 63.9,126.8 75.7,114.2 "></polygon> <path fill="#D1D1D1" d="M181.7,66.9l-6.5-7.5c0.7-2.2,1-4.6,1-7c0-11.8-8.3-21.7-19.5-24.3V4.9h-11v22.9 c-11.7,2.3-20.5,12.4-20.5,24.5c0,1.8,0.2,3.5,0.5,5.1l-50,56l10,1.1l50.1-42c4.2,3,9.3,4.7,14.9,4.7c4.7,0,9-1.2,12.8-3.4l5.2,3.4 L181.7,66.9z M150.5,30.9c2.9,0,5.7,0.6,8.2,1.6l-16.5,13.3v-4.4H138v8.7h-8.7C130.5,39.3,139.5,30.9,150.5,30.9z M143.9,55.6 l2.2,8.9l2.4-2.5l10.4,10.1c-2.6,1.1-5.4,1.7-8.3,1.7c-11.5,0-20.9-9.2-21.3-20.7h8.8v7.7h4.2V49l18.9-15.2 c6.4,3.7,10.8,10.6,10.8,18.6c0,8-4.3,14.9-10.7,18.6l-11-10.7l2.5-2.6L143.9,55.6z"></path> <polygon fill="#D1D1D1" points="209.2,118.2 216.4,112.8 223.5,122.2 226.1,120.9 230.9,128.4 229.9,129.9 247,151.6 247.3,159.1 "></polygon> <polygon fill="#D1D1D1" points="209.2,103.2 227.7,104 216.4,112.8 "></polygon> <polygon fill="#D1D1D1" points="241.5,104.5 247.9,104.5 248.5,108 266.2,103.2 248.6,96.9 248.6,100.8 239.7,99.8 "></polygon> </g> <g> <path fill="#28347A" d="M20.4,116.5v8.9h38.5v13.4H5.3V86.4h53.6v11.8H20.4v7.5h35.3v10.8H20.4z"></path> <path fill="#28347A" d="M81.7,112.9c0,3.2,0,7.8,0,7.9c0.3,2.6,2.4,4.6,8.6,4.6h35.3v13.3H85.4c-11.9,0-18.8-3.7-19.2-11.2 c0-0.1,0-7.7,0-14.6v-0.8c0-6.8,0-14.4,0-14.6c0.4-7.5,7.3-11.2,19.2-11.2h37.2v13.3H90.3c-6.2,0-8.3,2-8.6,4.6c0,0.1,0,4.7,0,7.9 V112.9z"></path> <path fill="#28347A" d="M152.1,128l-5.5,10.8h-17.6l29.4-52.4h17.9l29.4,52.4h-18l-5.5-10.8L152.1,128z M175,114.7l-7.9-14.8 l-8,14.9L175,114.7z"></path> <path fill="#28347A" d="M208.7,86.4h23.4l16.3,31l16.3-31h23.4v52.4h-15.4l-0.1-33.1l-17.2,33.1h-13.8l-17.2-33.1v33.1h-15.5V86.4z "></path> </g> <g> <path fill="#28347A" d="M4.9,169.4H10c1.3,0,2.3,0.4,2.9,1c0.5,0.5,0.8,1.1,0.8,1.9v0c0,1.4-0.8,2.1-1.6,2.5 c1.3,0.5,2.2,1.2,2.2,2.7v0c0,2-1.7,3.1-4.2,3.1H4.9V169.4z M9.6,174.1c1.3,0,2.1-0.5,2.1-1.5v0c0-0.9-0.7-1.4-2-1.4H6.9v3H9.6z M10.2,178.9c1.4,0,2.2-0.5,2.2-1.5v0c0-0.9-0.8-1.5-2.3-1.5H6.9v3.1H10.2z"></path> <path fill="#28347A" d="M16.5,169.4h5c1.4,0,2.5,0.4,3.2,1.1c0.6,0.6,0.9,1.4,0.9,2.4v0c0,1.9-1.1,3-2.7,3.4l3,4.3h-2.3l-2.8-3.9 h-2.5v3.9h-2V169.4z M21.4,174.9c1.4,0,2.3-0.7,2.3-1.9v0c0-1.2-0.9-1.9-2.3-1.9h-2.9v3.8H21.4z"></path> <path fill="#28347A" d="M28,175.8v-6.5h2v6.4c0,2.1,1.1,3.2,2.8,3.2c1.8,0,2.8-1.1,2.8-3.1v-6.5h2v6.4c0,3.4-1.9,5.1-4.8,5.1 C29.9,180.8,28,179.1,28,175.8z"></path> <path fill="#28347A" d="M39.6,179l1.2-1.4c1.1,0.9,2.2,1.5,3.6,1.5c1.2,0,2-0.6,2-1.4v0c0-0.8-0.4-1.2-2.5-1.7 c-2.4-0.6-3.7-1.3-3.7-3.4v0c0-1.9,1.6-3.3,3.8-3.3c1.6,0,2.9,0.5,4.1,1.4l-1.1,1.5c-1-0.8-2-1.2-3.1-1.2c-1.2,0-1.8,0.6-1.8,1.3v0 c0,0.9,0.5,1.3,2.7,1.8c2.4,0.6,3.6,1.4,3.6,3.3v0c0,2.1-1.7,3.4-4,3.4C42.6,180.8,40.9,180.2,39.6,179z"></path> <path fill="#28347A" d="M49.7,179l1.2-1.4c1.1,0.9,2.2,1.5,3.6,1.5c1.2,0,2-0.6,2-1.4v0c0-0.8-0.4-1.2-2.5-1.7 c-2.4-0.6-3.7-1.3-3.7-3.4v0c0-1.9,1.6-3.3,3.8-3.3c1.6,0,2.9,0.5,4.1,1.4l-1.1,1.5c-1-0.8-2-1.2-3.1-1.2c-1.2,0-1.8,0.6-1.8,1.3v0 c0,0.9,0.5,1.3,2.7,1.8c2.4,0.6,3.6,1.4,3.6,3.3v0c0,2.1-1.7,3.4-4,3.4C52.7,180.8,51.1,180.2,49.7,179z"></path> <path fill="#28347A" d="M60.8,169.4h8.3v1.8h-6.4v2.9h5.6v1.8h-5.6v3h6.5v1.8h-8.4V169.4z"></path> <path fill="#28347A" d="M71.5,169.4h2v9.5h5.9v1.8h-7.9V169.4z"></path> <path fill="#28347A" d="M80.7,179l1.2-1.4c1.1,0.9,2.2,1.5,3.6,1.5c1.2,0,2-0.6,2-1.4v0c0-0.8-0.4-1.2-2.5-1.7 c-2.4-0.6-3.7-1.3-3.7-3.4v0c0-1.9,1.6-3.3,3.8-3.3c1.6,0,2.9,0.5,4.1,1.4l-1.1,1.5c-1-0.8-2-1.2-3.1-1.2c-1.2,0-1.8,0.6-1.8,1.3v0 c0,0.9,0.5,1.3,2.7,1.8c2.4,0.6,3.6,1.4,3.6,3.3v0c0,2.1-1.7,3.4-4,3.4C83.7,180.8,82.1,180.2,80.7,179z"></path> <path fill="#28347A" d="M96.6,169.4h8.3v1.8h-6.4v2.9h5.6v1.8h-5.6v3h6.5v1.8h-8.4V169.4z"></path> <path fill="#28347A" d="M107.4,169.4h1.8l6,7.8v-7.8h1.9v11.3h-1.7l-6.2-8v8h-1.9V169.4z"></path> <path fill="#28347A" d="M119.6,175L119.6,175c0-3.2,2.4-5.9,5.8-5.9c2,0,3.2,0.5,4.3,1.5l-1.3,1.5c-0.9-0.7-1.7-1.2-3.2-1.2 c-2.1,0-3.7,1.8-3.7,4v0c0,2.3,1.5,4,3.8,4c1.1,0,2-0.3,2.7-0.9v-2.1h-2.9v-1.7h4.8v4.7c-1.1,0.9-2.7,1.8-4.7,1.8 C121.9,180.8,119.6,178.3,119.6,175z"></path> <path fill="#28347A" d="M132.8,169.4h2v11.3h-2V169.4z"></path> <path fill="#28347A" d="M137.8,169.4h1.8l6,7.8v-7.8h1.9v11.3h-1.7l-6.2-8v8h-1.9V169.4z"></path> <path fill="#28347A" d="M150.5,169.4h8.3v1.8h-6.4v2.9h5.6v1.8h-5.6v3h6.5v1.8h-8.4V169.4z"></path> <path fill="#28347A" d="M161.3,169.4h8.3v1.8h-6.4v2.9h5.6v1.8h-5.6v3h6.5v1.8h-8.4V169.4z"></path> <path fill="#28347A" d="M172,169.4h5c1.4,0,2.5,0.4,3.2,1.1c0.6,0.6,0.9,1.4,0.9,2.4v0c0,1.9-1.1,3-2.7,3.4l3,4.3h-2.3l-2.8-3.9 H174v3.9h-2V169.4z M176.9,174.9c1.4,0,2.3-0.7,2.3-1.9v0c0-1.2-0.9-1.9-2.3-1.9H174v3.8H176.9z"></path> <path fill="#28347A" d="M183.8,169.4h2v11.3h-2V169.4z"></path> <path fill="#28347A" d="M188.8,169.4h1.8l6,7.8v-7.8h1.9v11.3h-1.7l-6.2-8v8h-1.9V169.4z"></path> <path fill="#28347A" d="M201,175L201,175c0-3.2,2.4-5.9,5.8-5.9c2,0,3.2,0.5,4.3,1.5l-1.3,1.5c-0.9-0.7-1.7-1.2-3.2-1.2 c-2.1,0-3.7,1.8-3.7,4v0c0,2.3,1.5,4,3.8,4c1.1,0,2-0.3,2.7-0.9v-2.1h-2.9v-1.7h4.8v4.7c-1.1,0.9-2.7,1.8-4.7,1.8 C203.3,180.8,201,178.3,201,175z"></path> <path fill="#28347A" d="M218.1,179l1.2-1.4c1.1,0.9,2.2,1.5,3.6,1.5c1.2,0,2-0.6,2-1.4v0c0-0.8-0.4-1.2-2.5-1.7 c-2.4-0.6-3.7-1.3-3.7-3.4v0c0-1.9,1.6-3.3,3.8-3.3c1.6,0,2.9,0.5,4.1,1.4l-1.1,1.5c-1-0.8-2-1.2-3.1-1.2c-1.2,0-1.8,0.6-1.8,1.3v0 c0,0.9,0.5,1.3,2.7,1.8c2.4,0.6,3.6,1.4,3.6,3.3v0c0,2.1-1.7,3.4-4,3.4C221.1,180.8,219.5,180.2,218.1,179z"></path> <path fill="#28347A" d="M228.7,175L228.7,175c0-3.2,2.4-5.9,5.8-5.9c2.1,0,3.3,0.7,4.4,1.8l-1.3,1.5c-0.9-0.8-1.9-1.4-3.2-1.4 c-2.2,0-3.7,1.8-3.7,4v0c0,2.2,1.6,4,3.7,4c1.4,0,2.3-0.6,3.2-1.5l1.3,1.3c-1.2,1.2-2.5,2-4.6,2C231.1,180.8,228.7,178.3,228.7,175 z"></path> <path fill="#28347A" d="M241.1,169.4h2v4.7h5.4v-4.7h2v11.3h-2v-4.7H243v4.7h-2V169.4z"></path> <path fill="#28347A" d="M252.8,175L252.8,175c0-3.2,2.4-5.9,5.9-5.9c3.5,0,5.9,2.6,5.9,5.8v0c0,3.2-2.4,5.8-5.9,5.8 C255.2,180.8,252.8,178.2,252.8,175z M262.5,175L262.5,175c0-2.2-1.6-4-3.8-4c-2.2,0-3.8,1.8-3.8,4v0c0,2.2,1.6,4,3.8,4 C260.9,179,262.5,177.2,262.5,175z"></path> <path fill="#28347A" d="M266.5,175L266.5,175c0-3.2,2.4-5.9,5.9-5.9s5.9,2.6,5.9,5.8v0c0,3.2-2.4,5.8-5.9,5.8 S266.5,178.2,266.5,175z M276.2,175L276.2,175c0-2.2-1.6-4-3.8-4c-2.2,0-3.8,1.8-3.8,4v0c0,2.2,1.6,4,3.8,4 C274.6,179,276.2,177.2,276.2,175z"></path> <path fill="#28347A" d="M280.6,169.4h2v9.5h5.9v1.8h-7.9V169.4z"></path> </g> </svg> 